<svg xmlns="http://www.w3.org/2000/svg" width="70" height="43" viewBox="0 0 70 43">
  <g id="Grupo_408" data-name="Grupo 408" transform="translate(-815 -811)">
    <g id="Grupo_397" data-name="Grupo 397" transform="translate(-312.92 718.676)">
      <path id="Caminho_348" data-name="Caminho 348" d="M1288.562,142.267c0,1.46-.924,2.141-2.578,2.141h-3.162v-1.46h3.162a1,1,0,0,0,.632-.146.617.617,0,0,0,.195-.438.742.742,0,0,0-.195-.486.844.844,0,0,0-.583-.146c-1.508-.049-3.406.049-3.406-2.092a2.052,2.052,0,0,1,2.335-2.043h3.259v1.46h-3.016a1.154,1.154,0,0,0-.633.1.7.7,0,0,0-.243.535.528.528,0,0,0,.34.486,2.466,2.466,0,0,0,.632.1h.876a2.76,2.76,0,0,1,1.9.535,2.1,2.1,0,0,1,.487,1.459Z" transform="translate(-96.354 -21.089)" fill="#00679a" fill-rule="evenodd"/>
      <path id="Caminho_349" data-name="Caminho 349" d="M1270,140.808a2.76,2.76,0,0,0-1.9-.535h-.876a2.462,2.462,0,0,1-.632-.1.529.529,0,0,1-.34-.486.571.571,0,0,1,.243-.535,1.153,1.153,0,0,1,.632-.1h3.016V137.6h-3.259c-1.751,0-2.335,1.07-2.335,2.043,0,2.141,1.9,2.043,3.405,2.092a.845.845,0,0,1,.584.146.742.742,0,0,1,.194.486.616.616,0,0,1-.194.438,1.107,1.107,0,0,1-.633.146h-3.162v1.46h3.162c1.654,0,2.579-.681,2.579-2.141a2.1,2.1,0,0,0-.487-1.459Z" transform="translate(-84.656 -21.089)" fill="#00679a" fill-rule="evenodd"/>
      <path id="Caminho_350" data-name="Caminho 350" d="M1252.347,143H1248.5v-1.362h3.746v-1.362H1248.5v-1.265h3.843V137.6H1246.9v6.811h5.448V143Z" transform="translate(-73.203 -21.089)" fill="#00679a" fill-rule="evenodd"/>
      <path id="Caminho_351" data-name="Caminho 351" d="M1231.053,141.244a1.874,1.874,0,0,0,1.167-1.8,1.529,1.529,0,0,0-.829-1.509,4.071,4.071,0,0,0-1.992-.342h-3.749v6.813h1.654v-2.483h1.753c.585,0,.924.049,1.167.293a2.162,2.162,0,0,1,.293,1.361v.829h1.6v-1.315a2.262,2.262,0,0,0-.243-1.266A1.886,1.886,0,0,0,1231.053,141.244Zm-.973-.829a1.992,1.992,0,0,1-.779.1l-2,.049V139h2a1.3,1.3,0,0,1,.779.148.616.616,0,0,1,.339.582A.847.847,0,0,1,1230.079,140.415Z" transform="translate(-59.437 -21.087)" fill="#00679a" fill-rule="evenodd"/>
      <path id="Caminho_352" data-name="Caminho 352" d="M1186.608,137.594H1181.4l-2.091,2.239-2-2.239h-6.566v6.813h6.471l2.091-2.239,1.992,2.239h3.163v-2.289h2.045c1.411,0,2.821-.388,2.821-2.285C1189.334,137.985,1187.874,137.594,1186.608,137.594Zm-10.216,5.4h-4.038v-1.365h3.6v-1.361h-3.6V139h4.087l1.8,2Zm6.471.825L1180.335,141l2.529-2.677Zm3.745-3.064h-2.141V139h2.141c.585,0,.973.243.973.829A.882.882,0,0,1,1186.608,140.757Z" transform="translate(-23.871 -21.087)" fill="#00679a" fill-rule="evenodd"/>
      <path id="Caminho_353" data-name="Caminho 353" d="M1251.032,104.354v4.716l-2.869-4.716h-2.527v6.418l-2.724-6.418h-2.432l-2.333,5.346h-.729a1.618,1.618,0,0,1-1.117-.338,2.439,2.439,0,0,1-.437-1.607,2.2,2.2,0,0,1,.437-1.554,1.713,1.713,0,0,1,1.265-.388h1.554v-1.459h-1.554a3.312,3.312,0,0,0-2.481.775,3.512,3.512,0,0,0-.874,2.675,3.55,3.55,0,0,0,.825,2.576,3.513,3.513,0,0,0,2.383.779h1.9l.631-1.508h3.4l.631,1.508h3.309v-5.1l3.063,5.1h2.333v-6.806Zm-10.5,3.842,1.117-2.675,1.121,2.675Z" transform="translate(-65.032 -0.002)" fill="#00679a" fill-rule="evenodd"/>
      <path id="Caminho_354" data-name="Caminho 354" d="M1228.824,104.351h-1.653v6.807h1.653v-6.807Z" transform="translate(-60.437 0)" fill="#00679a" fill-rule="evenodd"/>
      <path id="Caminho_355" data-name="Caminho 355" d="M1211.326,108a1.929,1.929,0,0,0,1.167-1.8,1.692,1.692,0,0,0-.874-1.558,3.956,3.956,0,0,0-1.945-.289h-3.743v6.806h1.6v-2.481h1.752a1.66,1.66,0,0,1,1.212.293,2.064,2.064,0,0,1,.243,1.315v.874h1.653V109.8a1.807,1.807,0,0,0-.289-1.216A2.076,2.076,0,0,0,1211.326,108Zm-.973-.874a1.5,1.5,0,0,1-.825.145h-1.995v-1.5h1.995a2.187,2.187,0,0,1,.825.1.73.73,0,0,1,.292.634A.673.673,0,0,1,1210.353,107.124Z" transform="translate(-46.674 -0.002)" fill="#00679a" fill-rule="evenodd"/>
      <path id="Caminho_356" data-name="Caminho 356" d="M1192.611,109.748h-3.792v-1.361h3.744v-1.41h-3.744v-1.215h3.792v-1.41h-5.445v6.807h5.445v-1.41Z" transform="translate(-34.511 0)" fill="#00679a" fill-rule="evenodd"/>
      <path id="Caminho_357" data-name="Caminho 357" d="M1148.8,104.354l-1.995,4.617-2.139-4.617h-2.626v6.418l-2.77-6.418h-2.432l-2.915,6.806h1.748l.634-1.508h3.4l.634,1.508h3.306v-5.346l2.383,5.346h1.41l2.383-5.346v5.346h1.653v-6.806Zm-11.912,3.842,1.121-2.675,1.117,2.675Z" transform="translate(0 -0.002)" fill="#00679a" fill-rule="evenodd"/>
    </g>
    <g id="Retângulo_114" data-name="Retângulo 114" transform="translate(815 811)" fill="none" stroke="#00679a" stroke-width="1">
      <rect width="70" height="43" rx="4" stroke="none"/>
      <rect x="0.5" y="0.5" width="69" height="42" rx="3.5" fill="none"/>
    </g>
  </g>
</svg>
