<svg xmlns="http://www.w3.org/2000/svg" width="70" height="26.825" viewBox="0 0 70 26.825">
  <g id="Grupo_396" data-name="Grupo 396" transform="translate(-170.197 -169.179)">
    <g id="Grupo_392" data-name="Grupo 392" transform="translate(170.197 169.179)">
      <g id="Grupo_391" data-name="Grupo 391">
        <path id="Caminho_340" data-name="Caminho 340" d="M433.519,175.1a7.9,7.9,0,0,1,10.236,5.911l5.411-1.1a13.425,13.425,0,0,0-17.4-10.044Z" transform="translate(-422.607 -169.179)" fill="#ffbe00"/>
        <path id="Caminho_341" data-name="Caminho 341" d="M174.724,285.438l3.659-4.137a7.889,7.889,0,0,1,0-11.819l-3.66-4.137a13.414,13.414,0,0,0,0,20.093" transform="translate(-170.197 -261.977)" fill="#0096db"/>
        <path id="Caminho_342" data-name="Caminho 342" d="M443.626,597.309a7.9,7.9,0,0,1-10.237,5.9l-1.753,5.239a13.433,13.433,0,0,0,17.4-10.032Z" transform="translate(-422.478 -582.313)" fill="#e82717"/>
      </g>
    </g>
    <path id="Caminho_343" data-name="Caminho 343" d="M1029.192,382.838a9.644,9.644,0,0,1-.563-1.085,8.224,8.224,0,0,1,4.1-10.7,8.236,8.236,0,0,1,7.566.551,8.087,8.087,0,0,1,3.378,4.076c.1.241.194.5.282.717Zm4.931-8.586a4.075,4.075,0,0,0-2.471,4.326l7.427-3.2A3.942,3.942,0,0,0,1034.123,374.252Zm5.882,6.954,0,0-.154-.1a4.35,4.35,0,0,1-2.007,1.68,3.9,3.9,0,0,1-4.3-.433l-.1.154s0,0,0,0l-1.884,2.819a8.057,8.057,0,0,0,1.5.821,8.175,8.175,0,0,0,9.83-3.019Z" transform="translate(-827.704 -194.16)" fill="#1a1818"/>
    <path id="Caminho_344" data-name="Caminho 344" d="M1536.5,271.038v15.671l2.436.987-1.384,3.23-2.689-1.12a3.048,3.048,0,0,1-1.326-1.113,3.505,3.505,0,0,1-.52-1.942V271.038Z" transform="translate(-1315.086 -98.291)" fill="#1a1818"/>
    <g id="Grupo_393" data-name="Grupo 393" transform="translate(223.986 176.242)">
      <path id="Caminho_345" data-name="Caminho 345" d="M1709.555,435.539a4.432,4.432,0,0,1,1.523-3.344l-2.5-2.787a8.188,8.188,0,0,0-.008,12.262l2.5-2.79A4.433,4.433,0,0,1,1709.555,435.539Z" transform="translate(-1705.814 -427.356)" fill="#1a1818"/>
      <path id="Caminho_346" data-name="Caminho 346" d="M1867.743,633.818a4.493,4.493,0,0,1-1.408-.23l-1.194,3.549a8.192,8.192,0,0,0,10.626-6.113l-3.669-.749A4.445,4.445,0,0,1,1867.743,633.818Z" transform="translate(-1859.56 -621.187)" fill="#1a1818"/>
      <path id="Caminho_347" data-name="Caminho 347" d="M1868.222,370.816a8.178,8.178,0,0,0-2.6.418l1.183,3.552a4.446,4.446,0,0,1,5.76,3.334l3.67-.744A8.191,8.191,0,0,0,1868.222,370.816Z" transform="translate(-1860.028 -370.816)" fill="#1a1818"/>
    </g>
  </g>
</svg>
