<svg id="hipercard-seeklogo.com" xmlns="http://www.w3.org/2000/svg" width="70.913" height="30.867" viewBox="0 0 70.913 30.867">
  <path id="Caminho_358" data-name="Caminho 358" d="M19.467,0h-7.35C8.87.154,6.216,1.461,5.449,4.159c-.4,1.407-.62,2.952-.932,4.41C2.928,15.983,1.52,23.6,0,30.867H57.218c4.423,0,7.461-.935,8.281-4.445.381-1.631.747-3.478,1.111-5.27C68.033,14.166,69.456,7.18,70.913,0H19.467" fill="#b82126"/>
  <path id="Caminho_359" data-name="Caminho 359" d="M87.746,75.686c-.794.777-3.021,1-2.793-.859.189-1.542,1.868-1.87,3.688-1.647A4.58,4.58,0,0,1,87.746,75.686Zm-2.507-6.016c-.076.425-.192.811-.286,1.217.909-.228,3.738-.926,4.011.286a2.122,2.122,0,0,1-.179,1.146c-2.559-.242-4.644.183-5.192,2.005a2.262,2.262,0,0,0,.824,2.758,3.425,3.425,0,0,0,3.975-1.11,4.677,4.677,0,0,0-.107,1.146h1.325A20.551,20.551,0,0,1,90,73.68a13.574,13.574,0,0,0,.43-2.793C90.318,68.922,87.062,69.617,85.239,69.669Zm13.285,6.625c-1.037.022-1.552-.619-1.576-1.683-.041-1.863.776-3.933,2.435-4.118a4.038,4.038,0,0,1,1.9.287C100.762,72.872,100.95,76.242,98.524,76.294Zm3.438-9.848c-.132,1.157-.308,2.27-.537,3.33-3.777-1.2-6.094,1.583-6.052,5.013a2.7,2.7,0,0,0,.537,1.79,3.483,3.483,0,0,0,3.8.322,2.674,2.674,0,0,0,.537-.537c.1-.125.258-.452.286-.358a8.018,8.018,0,0,0-.143,1.11h1.4A97.537,97.537,0,0,1,103.5,66.447ZM62.535,75.721c-.824.873-2.849.859-3.008-.609a7.3,7.3,0,0,1,.286-1.969c.119-.669.2-1.311.322-1.9.811-.991,3.2-1.11,3.438.537A5.463,5.463,0,0,1,62.535,75.721Zm1.218-6.052a4.065,4.065,0,0,0-3.58.651c0,.024-.016.028-.037.03l.037-.03a.032.032,0,0,0,0-.006c.012-.239.1-.406.107-.645H58.955c-.552,3.673-1.207,7.244-1.9,10.779H58.6c.223-1.377.37-2.829.68-4.118.352,1.356,2.648,1.1,3.617.573C64.893,75.822,66.435,70.677,63.753,69.669Zm7.305,2.578H67.442a2.134,2.134,0,0,1,2.041-1.79C70.592,70.415,71.386,70.865,71.058,72.248ZM69.59,69.526a4.02,4.02,0,0,0-2.722,1.11,6.221,6.221,0,0,0-1.289,4.512c.278,2.481,3.366,2.392,5.837,1.79.042-.435.147-.808.215-1.217-1.018.381-2.785.912-3.832.251-.79-.5-.795-1.765-.537-2.865,1.66-.053,3.386-.043,5.049,0a5.294,5.294,0,0,0,.143-2.4C72.106,69.692,70.859,69.429,69.59,69.526Zm-13.536.143c-.042.006-.039.057-.036.107-.339,2.537-.8,4.955-1.289,7.341h1.54c.37-2.555.794-5.055,1.325-7.448Zm40.179.036c-1.361-.68-2.494.461-2.936,1.146.126-.351.133-.821.251-1.182H92.186q-.55,3.836-1.325,7.448h1.576a16.855,16.855,0,0,1,.358-2.686c.329-2.067.813-4.334,3.223-3.653C96.1,70.43,96.131,70.033,96.233,69.705Zm-17.3,5.658a3.749,3.749,0,0,1-.143-1.432,5.007,5.007,0,0,1,1.039-2.865c.8-.787,2.388-.657,3.653-.215.039-.426.125-.806.179-1.217-2.074-.339-4.042-.128-5.085.967a6.116,6.116,0,0,0-1.218,5.085C77.915,77.5,80.4,77.6,82.41,76.9c.089-.365.136-.771.215-1.146C81.526,76.328,79.425,76.625,78.936,75.363Zm-.859-5.694a2.363,2.363,0,0,0-2.936,1.253c.113-.388.159-.843.251-1.253H74.03c-.333,2.58-.823,5-1.289,7.448h1.54a29.279,29.279,0,0,1,.788-4.8A2.148,2.148,0,0,1,77.9,70.78C77.918,70.37,78.035,70.058,78.077,69.669ZM53.261,66.661c-.22,1.427-.468,2.827-.716,4.226-1.6.017-3.224.079-4.763-.036.291-1.368.5-2.819.788-4.19H46.851c-.615,3.491-1.175,7.037-1.862,10.457h1.755c.275-1.754.533-3.526.9-5.192a42.777,42.777,0,0,1,4.727.036c-.3,1.733-.655,3.4-.931,5.157h1.755c.564-3.542,1.158-7.055,1.862-10.457Zm4.369,1.576c.307-.211.7-1.175.251-1.576a.852.852,0,0,0-.716-.107.866.866,0,0,0-.609.322c-.195.265-.373,1.064-.072,1.361s.951.134,1.146,0Z" transform="translate(-38.758 -57.244)" fill="#fff"/>
</svg>
