<svg id="visa-seeklogo.com" xmlns="http://www.w3.org/2000/svg" xmlns:xlink="http://www.w3.org/1999/xlink" width="73.294" height="23.668" viewBox="0 0 73.294 23.668">
  <defs>
    <linearGradient id="linear-gradient" x1="0.46" y1="1.02" x2="0.549" gradientUnits="objectBoundingBox">
      <stop offset="0" stop-color="#222357"/>
      <stop offset="1" stop-color="#254aa5"/>
    </linearGradient>
  </defs>
  <path id="Caminho_336" data-name="Caminho 336" d="M37.906-75.1c-.042,3.3,2.938,5.137,5.183,6.231,2.307,1.122,3.081,1.842,3.072,2.846-.018,1.536-1.84,2.214-3.546,2.241a12.373,12.373,0,0,1-6.081-1.446l-1.072,5.016A17.832,17.832,0,0,0,42.048-59c6.22,0,10.289-3.07,10.311-7.831.024-6.041-8.357-6.376-8.3-9.076.02-.819.8-1.692,2.513-1.915A11.148,11.148,0,0,1,52.412-76.8l1.041-4.853a15.873,15.873,0,0,0-5.542-1.017c-5.854,0-9.972,3.112-10.005,7.567m25.55-7.149a2.7,2.7,0,0,0-2.52,1.679L52.051-59.357h6.215L59.5-62.775h7.6l.717,3.418h5.478L68.514-82.25H63.456m.869,6.185,1.794,8.6H61.207l3.119-8.6M30.37-82.25l-4.9,22.894h5.923l4.9-22.894H30.37m-8.762,0L15.444-66.668,12.95-79.917a2.761,2.761,0,0,0-2.731-2.333H.141L0-81.586a24.657,24.657,0,0,1,5.843,1.948A2.506,2.506,0,0,1,7.25-77.626l4.723,18.27h6.259l9.6-22.894h-6.22" transform="translate(0 82.668)" fill="url(#linear-gradient)"/>
</svg>
